<svg xmlns="http://www.w3.org/2000/svg" width="400" height="400" viewBox="0 0 400 400">
  <path d="M150.27 202.05L150.27 202.05Q147.97 202.05 145.47 201.54Q142.98 201.02 140.67 200L140.67 200L82.82 200L79.62 195.14L127.62 120.51L113.79 120.51Q105.47 120.51 101.82 124.99Q98.18 129.47 96.77 138.94L96.77 138.94L84.10 138.94Q84.10 130.24 85.25 122.56Q86.40 114.88 88.45 110.66L88.45 110.66L151.04 110.66L154.24 115.39L107.78 189.89L126.98 189.89Q131.33 189.89 134.53 186.69Q137.73 183.49 139.97 178.75Q142.21 174.02 143.36 169.41L143.36 169.41L155.65 169.41Q155.65 170.94 155.33 174.27Q155.01 177.60 154.43 181.76Q153.86 185.92 153.15 190.02Q152.45 194.11 151.68 197.38Q150.91 200.64 150.27 202.05ZM178.30 197.57L168.45 201.92Q166.78 198.59 165.44 192.64Q164.10 186.69 163.26 180.16Q162.43 173.63 162.43 168.51L162.43 168.51L175.23 168.51Q177.28 179.39 183.36 185.54Q189.44 191.68 197.50 191.68L197.50 191.68Q201.47 191.68 203.71 190.08Q205.95 188.48 206.98 186.18Q208 183.87 208 181.82L208 181.82Q208 177.60 205.18 174.53Q202.37 171.46 198.08 168.96Q193.79 166.46 189.44 164.42L189.44 164.42Q178.18 158.91 171.65 151.81Q165.12 144.70 165.12 133.95L165.12 133.95Q165.12 126.14 168.96 120.70Q172.80 115.26 179.26 112.32Q185.73 109.38 193.79 109.38L193.79 109.38Q197.50 109.38 202.56 110.14Q207.62 110.91 210.82 112.70L210.82 112.70L221.70 109.38Q223.49 112.32 224.19 117.12Q224.90 121.92 225.09 127.04Q225.28 132.16 225.28 136.38L225.28 136.38L225.28 138.30L214.66 138.30Q211.97 127.42 207.10 123.52Q202.24 119.62 196.61 119.62L196.61 119.62Q191.36 119.62 188.86 122.62Q186.37 125.63 186.37 130.11L186.37 130.11Q186.37 134.21 188.61 137.02Q190.85 139.84 194.43 141.95Q198.02 144.06 201.98 146.11L201.98 146.11Q206.34 148.16 211.07 150.78Q215.81 153.41 219.84 156.86Q223.87 160.32 226.37 165.06Q228.86 169.79 228.86 176.19L228.86 176.19Q228.86 183.23 225.28 189.06Q221.70 194.88 215.04 198.40Q208.38 201.92 198.91 201.92L198.91 201.92Q194.56 201.92 189.38 200.96Q184.19 200 178.30 197.57L178.30 197.57ZM265.22 200L236.16 200Q233.09 196.67 233.09 191.81L233.09 191.81Q238.34 191.81 240.77 190.40Q243.20 188.99 245.63 185.54L245.63 185.54L267.14 156.10L246.66 126.53Q243.84 122.43 240.58 120.58Q237.31 118.72 233.60 118.72L233.60 118.72Q233.60 113.86 236.42 110.66L236.42 110.66L274.18 110.66Q277.25 113.98 277.25 118.72L277.25 118.72Q273.28 118.72 271.68 119.68Q270.08 120.64 270.08 122.05L270.08 122.05Q270.08 123.07 270.72 124.29Q271.36 125.50 272.13 126.78L272.13 126.78L281.73 142.27L289.92 127.30Q290.43 126.40 290.82 125.31Q291.20 124.22 291.20 123.46L291.20 123.46Q291.20 121.41 289.41 120.06Q287.62 118.72 284.67 118.72L284.67 118.72Q284.67 113.86 287.62 110.66L287.62 110.66L316.80 110.66Q319.87 113.98 319.87 118.72L319.87 118.72Q314.62 118.72 312.13 120.26Q309.63 121.79 307.33 125.12L307.33 125.12L288.51 152.38L309.38 183.87Q311.68 187.33 314.88 189.57Q318.08 191.81 322.18 191.81L322.18 191.81Q322.18 196.80 319.36 200L319.36 200L282.50 200Q279.42 196.67 279.42 191.81L279.42 191.81Q283.26 191.81 284.80 190.85Q286.34 189.89 286.34 188.35L286.34 188.35Q286.34 187.33 285.82 186.18Q285.31 185.02 284.54 183.74L284.54 183.74L274.43 167.36L263.04 183.74Q261.89 185.41 261.89 187.07L261.89 187.07Q261.89 189.12 263.55 190.46Q265.22 191.81 268.16 191.81L268.16 191.81Q268.16 196.80 265.22 200L265.22 200Z" fill="#000000" stroke="#ffffff" stroke-width="1"/>
</svg>