<svg version="1.1" id="图层_1" xmlns="http://www.w3.org/2000/svg" xmlns:xlink="http://www.w3.org/1999/xlink" x="0px" y="0px"
	 viewBox="0 0 635.6 380" style="enable-background:new 0 0 635.6 380;" xml:space="preserve">
<path d="M167.37 201.34L167.37 201.34Q165.85 201.34 164.22 201.01Q162.58 200.67 161.07 200L161.07 200L123.10 200L121.00 196.81L152.50 147.84L143.43 147.84Q137.97 147.84 135.57 150.78Q133.18 153.72 132.25 159.93L132.25 159.93L123.94 159.93Q123.94 154.22 124.69 149.18Q125.45 144.14 126.79 141.37L126.79 141.37L167.87 141.37L169.97 144.48L139.48 193.36L152.08 193.36Q154.93 193.36 157.03 191.26Q159.13 189.16 160.60 186.06Q162.07 182.95 162.83 179.92L162.83 179.92L170.89 179.92Q170.89 180.93 170.68 183.12Q170.47 185.30 170.10 188.03Q169.72 190.76 169.26 193.45Q168.79 196.14 168.29 198.28Q167.79 200.42 167.37 201.34ZM185.76 198.40L179.29 201.26Q178.20 199.08 177.32 195.17Q176.44 191.26 175.89 186.98Q175.35 182.70 175.35 179.34L175.35 179.34L183.75 179.34Q185.09 186.48 189.08 190.51Q193.07 194.54 198.36 194.54L198.36 194.54Q200.97 194.54 202.44 193.49Q203.91 192.44 204.58 190.93Q205.25 189.42 205.25 188.07L205.25 188.07Q205.25 185.30 203.40 183.28Q201.55 181.27 198.74 179.63Q195.93 177.99 193.07 176.65L193.07 176.65Q185.68 173.04 181.39 168.37Q177.11 163.71 177.11 156.66L177.11 156.66Q177.11 151.53 179.63 147.96Q182.15 144.39 186.39 142.46Q190.63 140.53 195.93 140.53L195.93 140.53Q198.36 140.53 201.68 141.03Q205.00 141.54 207.10 142.71L207.10 142.71L214.24 140.53Q215.41 142.46 215.88 145.61Q216.34 148.76 216.46 152.12Q216.59 155.48 216.59 158.25L216.59 158.25L216.59 159.51L209.62 159.51Q207.85 152.37 204.66 149.81Q201.47 147.25 197.77 147.25L197.77 147.25Q194.33 147.25 192.69 149.22Q191.05 151.20 191.05 154.14L191.05 154.14Q191.05 156.82 192.52 158.67Q193.99 160.52 196.35 161.91Q198.70 163.29 201.30 164.64L201.30 164.64Q204.16 165.98 207.27 167.70Q210.37 169.42 213.02 171.69Q215.67 173.96 217.30 177.07Q218.94 180.18 218.94 184.38L218.94 184.38Q218.94 189.00 216.59 192.82Q214.24 196.64 209.87 198.95Q205.50 201.26 199.29 201.26L199.29 201.26Q196.43 201.26 193.03 200.63Q189.63 200 185.76 198.40L185.76 198.40ZM242.80 200L223.73 200Q221.71 197.82 221.71 194.62L221.71 194.62Q225.16 194.62 226.75 193.70Q228.35 192.78 229.95 190.51L229.95 190.51L244.06 171.19L230.62 151.78Q228.77 149.10 226.63 147.88Q224.49 146.66 222.05 146.66L222.05 146.66Q222.05 143.47 223.90 141.37L223.90 141.37L248.68 141.37Q250.69 143.55 250.69 146.66L250.69 146.66Q248.09 146.66 247.04 147.29Q245.99 147.92 245.99 148.84L245.99 148.84Q245.99 149.52 246.41 150.31Q246.83 151.11 247.33 151.95L247.33 151.95L253.63 162.12L259.01 152.29Q259.35 151.70 259.60 150.99Q259.85 150.27 259.85 149.77L259.85 149.77Q259.85 148.42 258.67 147.54Q257.50 146.66 255.57 146.66L255.57 146.66Q255.57 143.47 257.50 141.37L257.50 141.37L276.65 141.37Q278.67 143.55 278.67 146.66L278.67 146.66Q275.22 146.66 273.58 147.67Q271.95 148.68 270.43 150.86L270.43 150.86L258.09 168.75L271.78 189.42Q273.29 191.68 275.39 193.15Q277.49 194.62 280.18 194.62L280.18 194.62Q280.18 197.90 278.33 200L278.33 200L254.14 200Q252.12 197.82 252.12 194.62L252.12 194.62Q254.64 194.62 255.65 193.99Q256.66 193.36 256.66 192.36L256.66 192.36Q256.66 191.68 256.32 190.93Q255.99 190.17 255.48 189.33L255.48 189.33L248.85 178.58L241.37 189.33Q240.61 190.42 240.61 191.52L240.61 191.52Q240.61 192.86 241.71 193.74Q242.80 194.62 244.73 194.62L244.73 194.62Q244.73 197.90 242.80 200L242.80 200Z" fill="#888" stroke="#ffffff" stroke-width="1"/>
</svg>